<svg height="30pt" viewBox="0 0 512 512" width="30pt" xmlns="http://www.w3.org/2000/svg"><path d="m512 256c0 141.386719-114.613281 256-256 256s-256-114.613281-256-256 114.613281-256 256-256 256 114.613281 256 256zm0 0" fill="#00c800"/><path d="m512 256c0-13.222656-1.003906-26.214844-2.9375-38.894531l-127.101562-127.105469-27.5625 20-19.453126-20-26.585937 20-19.453125-20-27.558594 50.457031c-.125-.128906-33.386718-33.378906-33.386718-33.378906l-75.621094 110.050781 10.046875 10.050782-5.449219 194.820312 89.816406 89.816406c3.070313.109375 6.148438.183594 9.246094.183594 141.386719 0 256-114.613281 256-256zm0 0" fill="#00ad00"/><path d="m381.960938 90v82.351562c0 23.601563-13.640626 44.082032-33.441407 53.976563l3.878907 135.972656.550781 19.453125 1.148437 40.246094h-64.878906l1.128906-40.25.539063-19.453125 3.804687-136.015625c-19.75-9.914062-33.34375-30.359375-33.34375-53.929688v-82.351562h27.558594v68.382812h19.453125v-68.382812h26.585937v67.8125h19.453126v-67.8125zm0 0" fill="#dfcdbd"/><path d="m381.960938 90v82.351562c0 23.601563-13.640626 44.082032-33.441407 53.976563l3.878907 135.972656.550781 19.453125 1.148437 40.246094h-32.441406v-332h13.292969v67.8125h19.449219v-67.8125zm0 0" fill="#c8ad92"/><path d="m248.703125 161.328125c0 18.667969-5.917969 36.300781-16.675781 49.65625-4.667969 5.804687-10.011719 10.511719-15.824219 14.050781l3.910156 137.261719.550781 19.453125 1.148438 40.25h-64.875l1.128906-40.25.542969-19.453125 3.839844-137.320313c-5.769531-3.527343-11.082031-8.21875-15.722657-13.992187-10.757812-13.355469-16.6875-30.988281-16.6875-49.65625s5.929688-36.300781 16.6875-49.65625c11.25-13.976563 26.390626-21.671875 42.640626-21.671875h.003906c16.257812 0 31.40625 7.695312 42.65625 21.671875 10.757812 13.355469 16.675781 30.988281 16.675781 49.65625zm0 0" fill="#dfcdbd"/><path d="m352.949219 381.75h-62.601563l.539063-19.453125h61.511719zm0 0" fill="#8a6744"/><path d="m352.949219 381.75h-31.296875v-19.453125h30.746094zm0 0" fill="#644b31"/><path d="m248.703125 161.328125c0 18.667969-5.917969 36.300781-16.675781 49.65625-4.667969 5.804687-10.011719 10.511719-15.824219 14.050781l3.910156 137.261719.550781 19.453125 1.148438 40.25h-32.445312v-332h.003906c16.257812 0 31.40625 7.695312 42.65625 21.671875 10.757812 13.355469 16.675781 30.988281 16.675781 49.65625zm0 0" fill="#c8ad92"/><path d="m220.667969 381.75h-62.601563l.542969-19.453125h61.503906zm0 0" fill="#8a6744"/><path d="m220.667969 381.75h-31.300781v-19.453125h30.746093zm0 0" fill="#644b31"/></svg>
